<?xml version="1.0" encoding="UTF-8"?>
<!DOCTYPE svg PUBLIC "-//W3C//DTD SVG 1.1//EN" "http://www.w3.org/Graphics/SVG/1.1/DTD/svg11.dtd">
<svg width="337mm" height="178mm" viewBox="0 0 33700 17800" version="1.1" xmlns="http://www.w3.org/2000/svg" xmlns:xlink="http://www.w3.org/1999/xlink" stroke-width="28.222" stroke-linejoin="round" xml:space="preserve">
 <path fill="rgb(255,255,255)" stroke="none" d="M 16871,17823 L 36,17823 36,0 33706,0 33706,17823 16871,17823 Z"/>
 <path fill="none" stroke="rgb(179,179,179)" stroke-linejoin="round" d="M 17620,13399 L 3226,13399 3226,1627 32015,1627 32015,13399 17620,13399 Z"/>
 <path fill="none" stroke="rgb(179,179,179)" stroke-linejoin="round" d="M 32015,13398 L 3226,13398"/>
 <path fill="none" stroke="rgb(179,179,179)" stroke-linejoin="round" d="M 32015,11435 L 3226,11435"/>
 <path fill="none" stroke="rgb(179,179,179)" stroke-linejoin="round" d="M 32015,9473 L 3226,9473"/>
 <path fill="none" stroke="rgb(179,179,179)" stroke-linejoin="round" d="M 32015,7512 L 3226,7512"/>
 <path fill="none" stroke="rgb(179,179,179)" stroke-linejoin="round" d="M 32015,5550 L 3226,5550"/>
 <path fill="none" stroke="rgb(179,179,179)" stroke-linejoin="round" d="M 32015,3588 L 3226,3588"/>
 <path fill="none" stroke="rgb(179,179,179)" stroke-linejoin="round" d="M 32015,1626 L 3226,1626"/>
 <path fill="none" stroke="rgb(179,179,179)" stroke-linejoin="round" d="M 3226,13548 L 3226,13398"/>
 <path fill="none" stroke="rgb(179,179,179)" stroke-linejoin="round" d="M 3226,13548 L 3226,13398"/>
 <path fill="none" stroke="rgb(179,179,179)" stroke-linejoin="round" d="M 4048,13548 L 4048,13398"/>
 <path fill="none" stroke="rgb(179,179,179)" stroke-linejoin="round" d="M 4048,13548 L 4048,13398"/>
 <path fill="none" stroke="rgb(179,179,179)" stroke-linejoin="round" d="M 4871,13548 L 4871,13398"/>
 <path fill="none" stroke="rgb(179,179,179)" stroke-linejoin="round" d="M 4871,13548 L 4871,13398"/>
 <path fill="none" stroke="rgb(179,179,179)" stroke-linejoin="round" d="M 5693,13548 L 5693,13398"/>
 <path fill="none" stroke="rgb(179,179,179)" stroke-linejoin="round" d="M 5693,13548 L 5693,13398"/>
 <path fill="none" stroke="rgb(179,179,179)" stroke-linejoin="round" d="M 6516,13548 L 6516,13398"/>
 <path fill="none" stroke="rgb(179,179,179)" stroke-linejoin="round" d="M 6516,13548 L 6516,13398"/>
 <path fill="none" stroke="rgb(179,179,179)" stroke-linejoin="round" d="M 7338,13548 L 7338,13398"/>
 <path fill="none" stroke="rgb(179,179,179)" stroke-linejoin="round" d="M 7338,13548 L 7338,13398"/>
 <path fill="none" stroke="rgb(179,179,179)" stroke-linejoin="round" d="M 8161,13548 L 8161,13398"/>
 <path fill="none" stroke="rgb(179,179,179)" stroke-linejoin="round" d="M 8161,13548 L 8161,13398"/>
 <path fill="none" stroke="rgb(179,179,179)" stroke-linejoin="round" d="M 8984,13548 L 8984,13398"/>
 <path fill="none" stroke="rgb(179,179,179)" stroke-linejoin="round" d="M 8984,13548 L 8984,13398"/>
 <path fill="none" stroke="rgb(179,179,179)" stroke-linejoin="round" d="M 9806,13548 L 9806,13398"/>
 <path fill="none" stroke="rgb(179,179,179)" stroke-linejoin="round" d="M 9806,13548 L 9806,13398"/>
 <path fill="none" stroke="rgb(179,179,179)" stroke-linejoin="round" d="M 10629,13548 L 10629,13398"/>
 <path fill="none" stroke="rgb(179,179,179)" stroke-linejoin="round" d="M 10629,13548 L 10629,13398"/>
 <path fill="none" stroke="rgb(179,179,179)" stroke-linejoin="round" d="M 11451,13548 L 11451,13398"/>
 <path fill="none" stroke="rgb(179,179,179)" stroke-linejoin="round" d="M 11451,13548 L 11451,13398"/>
 <path fill="none" stroke="rgb(179,179,179)" stroke-linejoin="round" d="M 12274,13548 L 12274,13398"/>
 <path fill="none" stroke="rgb(179,179,179)" stroke-linejoin="round" d="M 12274,13548 L 12274,13398"/>
 <path fill="none" stroke="rgb(179,179,179)" stroke-linejoin="round" d="M 13096,13548 L 13096,13398"/>
 <path fill="none" stroke="rgb(179,179,179)" stroke-linejoin="round" d="M 13096,13548 L 13096,13398"/>
 <path fill="none" stroke="rgb(179,179,179)" stroke-linejoin="round" d="M 13919,13548 L 13919,13398"/>
 <path fill="none" stroke="rgb(179,179,179)" stroke-linejoin="round" d="M 13919,13548 L 13919,13398"/>
 <path fill="none" stroke="rgb(179,179,179)" stroke-linejoin="round" d="M 14741,13548 L 14741,13398"/>
 <path fill="none" stroke="rgb(179,179,179)" stroke-linejoin="round" d="M 14741,13548 L 14741,13398"/>
 <path fill="none" stroke="rgb(179,179,179)" stroke-linejoin="round" d="M 15564,13548 L 15564,13398"/>
 <path fill="none" stroke="rgb(179,179,179)" stroke-linejoin="round" d="M 15564,13548 L 15564,13398"/>
 <path fill="none" stroke="rgb(179,179,179)" stroke-linejoin="round" d="M 16387,13548 L 16387,13398"/>
 <path fill="none" stroke="rgb(179,179,179)" stroke-linejoin="round" d="M 16387,13548 L 16387,13398"/>
 <path fill="none" stroke="rgb(179,179,179)" stroke-linejoin="round" d="M 17208,13548 L 17208,13398"/>
 <path fill="none" stroke="rgb(179,179,179)" stroke-linejoin="round" d="M 17208,13548 L 17208,13398"/>
 <path fill="none" stroke="rgb(179,179,179)" stroke-linejoin="round" d="M 18031,13548 L 18031,13398"/>
 <path fill="none" stroke="rgb(179,179,179)" stroke-linejoin="round" d="M 18031,13548 L 18031,13398"/>
 <path fill="none" stroke="rgb(179,179,179)" stroke-linejoin="round" d="M 18853,13548 L 18853,13398"/>
 <path fill="none" stroke="rgb(179,179,179)" stroke-linejoin="round" d="M 18853,13548 L 18853,13398"/>
 <path fill="none" stroke="rgb(179,179,179)" stroke-linejoin="round" d="M 19676,13548 L 19676,13398"/>
 <path fill="none" stroke="rgb(179,179,179)" stroke-linejoin="round" d="M 19676,13548 L 19676,13398"/>
 <path fill="none" stroke="rgb(179,179,179)" stroke-linejoin="round" d="M 20499,13548 L 20499,13398"/>
 <path fill="none" stroke="rgb(179,179,179)" stroke-linejoin="round" d="M 20499,13548 L 20499,13398"/>
 <path fill="none" stroke="rgb(179,179,179)" stroke-linejoin="round" d="M 21321,13548 L 21321,13398"/>
 <path fill="none" stroke="rgb(179,179,179)" stroke-linejoin="round" d="M 21321,13548 L 21321,13398"/>
 <path fill="none" stroke="rgb(179,179,179)" stroke-linejoin="round" d="M 22144,13548 L 22144,13398"/>
 <path fill="none" stroke="rgb(179,179,179)" stroke-linejoin="round" d="M 22144,13548 L 22144,13398"/>
 <path fill="none" stroke="rgb(179,179,179)" stroke-linejoin="round" d="M 22966,13548 L 22966,13398"/>
 <path fill="none" stroke="rgb(179,179,179)" stroke-linejoin="round" d="M 22966,13548 L 22966,13398"/>
 <path fill="none" stroke="rgb(179,179,179)" stroke-linejoin="round" d="M 23789,13548 L 23789,13398"/>
 <path fill="none" stroke="rgb(179,179,179)" stroke-linejoin="round" d="M 23789,13548 L 23789,13398"/>
 <path fill="none" stroke="rgb(179,179,179)" stroke-linejoin="round" d="M 24611,13548 L 24611,13398"/>
 <path fill="none" stroke="rgb(179,179,179)" stroke-linejoin="round" d="M 24611,13548 L 24611,13398"/>
 <path fill="none" stroke="rgb(179,179,179)" stroke-linejoin="round" d="M 25434,13548 L 25434,13398"/>
 <path fill="none" stroke="rgb(179,179,179)" stroke-linejoin="round" d="M 25434,13548 L 25434,13398"/>
 <path fill="none" stroke="rgb(179,179,179)" stroke-linejoin="round" d="M 26256,13548 L 26256,13398"/>
 <path fill="none" stroke="rgb(179,179,179)" stroke-linejoin="round" d="M 26256,13548 L 26256,13398"/>
 <path fill="none" stroke="rgb(179,179,179)" stroke-linejoin="round" d="M 27079,13548 L 27079,13398"/>
 <path fill="none" stroke="rgb(179,179,179)" stroke-linejoin="round" d="M 27079,13548 L 27079,13398"/>
 <path fill="none" stroke="rgb(179,179,179)" stroke-linejoin="round" d="M 27902,13548 L 27902,13398"/>
 <path fill="none" stroke="rgb(179,179,179)" stroke-linejoin="round" d="M 27902,13548 L 27902,13398"/>
 <path fill="none" stroke="rgb(179,179,179)" stroke-linejoin="round" d="M 28724,13548 L 28724,13398"/>
 <path fill="none" stroke="rgb(179,179,179)" stroke-linejoin="round" d="M 28724,13548 L 28724,13398"/>
 <path fill="none" stroke="rgb(179,179,179)" stroke-linejoin="round" d="M 29547,13548 L 29547,13398"/>
 <path fill="none" stroke="rgb(179,179,179)" stroke-linejoin="round" d="M 29547,13548 L 29547,13398"/>
 <path fill="none" stroke="rgb(179,179,179)" stroke-linejoin="round" d="M 30369,13548 L 30369,13398"/>
 <path fill="none" stroke="rgb(179,179,179)" stroke-linejoin="round" d="M 30369,13548 L 30369,13398"/>
 <path fill="none" stroke="rgb(179,179,179)" stroke-linejoin="round" d="M 31192,13548 L 31192,13398"/>
 <path fill="none" stroke="rgb(179,179,179)" stroke-linejoin="round" d="M 31192,13548 L 31192,13398"/>
 <path fill="none" stroke="rgb(179,179,179)" stroke-linejoin="round" d="M 32015,13548 L 32015,13398"/>
 <path fill="none" stroke="rgb(179,179,179)" stroke-linejoin="round" d="M 32015,13548 L 32015,13398"/>
 <path fill="none" stroke="rgb(179,179,179)" stroke-linejoin="round" d="M 3226,13398 L 32015,13398"/>
 <path fill="none" stroke="rgb(179,179,179)" stroke-linejoin="round" d="M 3076,13398 L 3226,13398"/>
 <path fill="none" stroke="rgb(179,179,179)" stroke-linejoin="round" d="M 3076,13398 L 3226,13398"/>
 <path fill="none" stroke="rgb(179,179,179)" stroke-linejoin="round" d="M 3076,11435 L 3226,11435"/>
 <path fill="none" stroke="rgb(179,179,179)" stroke-linejoin="round" d="M 3076,11435 L 3226,11435"/>
 <path fill="none" stroke="rgb(179,179,179)" stroke-linejoin="round" d="M 3076,9473 L 3226,9473"/>
 <path fill="none" stroke="rgb(179,179,179)" stroke-linejoin="round" d="M 3076,9473 L 3226,9473"/>
 <path fill="none" stroke="rgb(179,179,179)" stroke-linejoin="round" d="M 3076,7512 L 3226,7512"/>
 <path fill="none" stroke="rgb(179,179,179)" stroke-linejoin="round" d="M 3076,7512 L 3226,7512"/>
 <path fill="none" stroke="rgb(179,179,179)" stroke-linejoin="round" d="M 3076,5550 L 3226,5550"/>
 <path fill="none" stroke="rgb(179,179,179)" stroke-linejoin="round" d="M 3076,5550 L 3226,5550"/>
 <path fill="none" stroke="rgb(179,179,179)" stroke-linejoin="round" d="M 3076,3588 L 3226,3588"/>
 <path fill="none" stroke="rgb(179,179,179)" stroke-linejoin="round" d="M 3076,3588 L 3226,3588"/>
 <path fill="none" stroke="rgb(179,179,179)" stroke-linejoin="round" d="M 3076,1626 L 3226,1626"/>
 <path fill="none" stroke="rgb(179,179,179)" stroke-linejoin="round" d="M 3076,1626 L 3226,1626"/>
 <path fill="none" stroke="rgb(179,179,179)" stroke-linejoin="round" d="M 3226,13398 L 3226,1626"/>
 <path fill="none" stroke="rgb(0,69,134)" stroke-width="80" stroke-linejoin="round" d="M 3226,10813 L 4048,12751 4871,13397 5693,10813 6516,12751 7338,13397 8161,10813 8984,12751 9806,13397 10629,8235 11451,12107 12274,13397 13096,8235 13919,12107 14742,13397 15564,8235 16387,12107 17208,13397 18031,5656 18853,11462 19676,13397 20499,5656 21321,11462 22144,13397 22966,5656 23789,11462 24611,13396 25434,3077 26257,10817 27079,13396 27902,3077 28724,10817 29547,13396 30369,3077 31192,10817 32015,13396"/>
 <text class="TextShape" transform="rotate(-44.9 1213 15969)"><tspan class="TextParagraph" font-family="Liberation Sans, sans-serif" font-size="353px" font-weight="400"><tspan class="TextPosition" x="1213" y="15969"><tspan fill="rgb(0,0,0)" stroke="none">500_1us_16000bps</tspan></tspan></tspan></text>
 <text class="TextShape" transform="rotate(-44.9 2035 15969)"><tspan class="TextParagraph" font-family="Liberation Sans, sans-serif" font-size="353px" font-weight="400"><tspan class="TextPosition" x="2035" y="15969"><tspan fill="rgb(0,0,0)" stroke="none">500_1us_64000bps</tspan></tspan></tspan></text>
 <text class="TextShape" transform="rotate(-44.9 2914 15913)"><tspan class="TextParagraph" font-family="Liberation Sans, sans-serif" font-size="353px" font-weight="400"><tspan class="TextPosition" x="2914" y="15913"><tspan fill="rgb(0,0,0)" stroke="none">500_1us_125Mbps</tspan></tspan></tspan></text>
 <text class="TextShape" transform="rotate(-44.9 3680 15969)"><tspan class="TextParagraph" font-family="Liberation Sans, sans-serif" font-size="353px" font-weight="400"><tspan class="TextPosition" x="3680" y="15969"><tspan fill="rgb(0,0,0)" stroke="none">500_5us_16000bps</tspan></tspan></tspan></text>
 <text class="TextShape" transform="rotate(-44.9 4503 15969)"><tspan class="TextParagraph" font-family="Liberation Sans, sans-serif" font-size="353px" font-weight="400"><tspan class="TextPosition" x="4503" y="15969"><tspan fill="rgb(0,0,0)" stroke="none">500_5us_64000bps</tspan></tspan></tspan></text>
 <text class="TextShape" transform="rotate(-44.9 5381 15913)"><tspan class="TextParagraph" font-family="Liberation Sans, sans-serif" font-size="353px" font-weight="400"><tspan class="TextPosition" x="5381" y="15913"><tspan fill="rgb(0,0,0)" stroke="none">500_5us_125Mbps</tspan></tspan></tspan></text>
 <text class="TextShape" transform="rotate(-44.9 6017 16101)"><tspan class="TextParagraph" font-family="Liberation Sans, sans-serif" font-size="353px" font-weight="400"><tspan class="TextPosition" x="6017" y="16101"><tspan fill="rgb(0,0,0)" stroke="none">500_10us_16000bps</tspan></tspan></tspan></text>
 <text class="TextShape" transform="rotate(-44.9 6840 16101)"><tspan class="TextParagraph" font-family="Liberation Sans, sans-serif" font-size="353px" font-weight="400"><tspan class="TextPosition" x="6840" y="16101"><tspan fill="rgb(0,0,0)" stroke="none">500_10us_64000bps</tspan></tspan></tspan></text>
 <text class="TextShape" transform="rotate(-44.9 7719 16043)"><tspan class="TextParagraph" font-family="Liberation Sans, sans-serif" font-size="353px" font-weight="400"><tspan class="TextPosition" x="7719" y="16043"><tspan fill="rgb(0,0,0)" stroke="none">500_10us_125Mbps</tspan></tspan></tspan></text>
 <text class="TextShape" transform="rotate(-44.9 8485 16101)"><tspan class="TextParagraph" font-family="Liberation Sans, sans-serif" font-size="353px" font-weight="400"><tspan class="TextPosition" x="8485" y="16101"><tspan fill="rgb(0,0,0)" stroke="none">1000_1us_16000bps</tspan></tspan></tspan></text>
 <text class="TextShape" transform="rotate(-44.9 9307 16101)"><tspan class="TextParagraph" font-family="Liberation Sans, sans-serif" font-size="353px" font-weight="400"><tspan class="TextPosition" x="9307" y="16101"><tspan fill="rgb(0,0,0)" stroke="none">1000_1us_64000bps</tspan></tspan></tspan></text>
 <text class="TextShape" transform="rotate(-44.9 10187 16043)"><tspan class="TextParagraph" font-family="Liberation Sans, sans-serif" font-size="353px" font-weight="400"><tspan class="TextPosition" x="10187" y="16043"><tspan fill="rgb(0,0,0)" stroke="none">1000_1us_125Mbps</tspan></tspan></tspan></text>
 <text class="TextShape" transform="rotate(-44.9 10952 16101)"><tspan class="TextParagraph" font-family="Liberation Sans, sans-serif" font-size="353px" font-weight="400"><tspan class="TextPosition" x="10952" y="16101"><tspan fill="rgb(0,0,0)" stroke="none">1000_5us_16000bps</tspan></tspan></tspan></text>
 <text class="TextShape" transform="rotate(-44.9 11775 16101)"><tspan class="TextParagraph" font-family="Liberation Sans, sans-serif" font-size="353px" font-weight="400"><tspan class="TextPosition" x="11775" y="16101"><tspan fill="rgb(0,0,0)" stroke="none">1000_5us_64000bps</tspan></tspan></tspan></text>
 <text class="TextShape" transform="rotate(-44.9 12654 16043)"><tspan class="TextParagraph" font-family="Liberation Sans, sans-serif" font-size="353px" font-weight="400"><tspan class="TextPosition" x="12654" y="16043"><tspan fill="rgb(0,0,0)" stroke="none">1000_5us_125Mbps</tspan></tspan></tspan></text>
 <text class="TextShape" transform="rotate(-44.9 13289 16231)"><tspan class="TextParagraph" font-family="Liberation Sans, sans-serif" font-size="353px" font-weight="400"><tspan class="TextPosition" x="13289" y="16231"><tspan fill="rgb(0,0,0)" stroke="none">1000_10us_16000bps</tspan></tspan></tspan></text>
 <text class="TextShape" transform="rotate(-44.9 14112 16231)"><tspan class="TextParagraph" font-family="Liberation Sans, sans-serif" font-size="353px" font-weight="400"><tspan class="TextPosition" x="14112" y="16231"><tspan fill="rgb(0,0,0)" stroke="none">1000_10us_64000bps</tspan></tspan></tspan></text>
 <text class="TextShape" transform="rotate(-44.9 14992 16174)"><tspan class="TextParagraph" font-family="Liberation Sans, sans-serif" font-size="353px" font-weight="400"><tspan class="TextPosition" x="14992" y="16174"><tspan fill="rgb(0,0,0)" stroke="none">1000_10us_125Mbps</tspan></tspan></tspan></text>
 <text class="TextShape" transform="rotate(-44.9 15888 16101)"><tspan class="TextParagraph" font-family="Liberation Sans, sans-serif" font-size="353px" font-weight="400"><tspan class="TextPosition" x="15888" y="16101"><tspan fill="rgb(0,0,0)" stroke="none">1500_1us_16000bps</tspan></tspan></tspan></text>
 <text class="TextShape" transform="rotate(-44.9 16710 16101)"><tspan class="TextParagraph" font-family="Liberation Sans, sans-serif" font-size="353px" font-weight="400"><tspan class="TextPosition" x="16710" y="16101"><tspan fill="rgb(0,0,0)" stroke="none">1500_1us_64000bps</tspan></tspan></tspan></text>
 <text class="TextShape" transform="rotate(-44.9 17590 16043)"><tspan class="TextParagraph" font-family="Liberation Sans, sans-serif" font-size="353px" font-weight="400"><tspan class="TextPosition" x="17590" y="16043"><tspan fill="rgb(0,0,0)" stroke="none">1500_1us_125Mbps</tspan></tspan></tspan></text>
 <text class="TextShape" transform="rotate(-44.9 18356 16101)"><tspan class="TextParagraph" font-family="Liberation Sans, sans-serif" font-size="353px" font-weight="400"><tspan class="TextPosition" x="18356" y="16101"><tspan fill="rgb(0,0,0)" stroke="none">1500_5us_16000bps</tspan></tspan></tspan></text>
 <text class="TextShape" transform="rotate(-44.9 19178 16101)"><tspan class="TextParagraph" font-family="Liberation Sans, sans-serif" font-size="353px" font-weight="400"><tspan class="TextPosition" x="19178" y="16101"><tspan fill="rgb(0,0,0)" stroke="none">1500_5us_64000bps</tspan></tspan></tspan></text>
 <text class="TextShape" transform="rotate(-44.9 20058 16043)"><tspan class="TextParagraph" font-family="Liberation Sans, sans-serif" font-size="353px" font-weight="400"><tspan class="TextPosition" x="20058" y="16043"><tspan fill="rgb(0,0,0)" stroke="none">1500_5us_125Mbps</tspan></tspan></tspan></text>
 <text class="TextShape" transform="rotate(-44.9 20692 16231)"><tspan class="TextParagraph" font-family="Liberation Sans, sans-serif" font-size="353px" font-weight="400"><tspan class="TextPosition" x="20692" y="16231"><tspan fill="rgb(0,0,0)" stroke="none">1500_10us_16000bps</tspan></tspan></tspan></text>
 <text class="TextShape" transform="rotate(-44.9 21515 16231)"><tspan class="TextParagraph" font-family="Liberation Sans, sans-serif" font-size="353px" font-weight="400"><tspan class="TextPosition" x="21515" y="16231"><tspan fill="rgb(0,0,0)" stroke="none">1500_10us_64000bps</tspan></tspan></tspan></text>
 <text class="TextShape" transform="rotate(-44.9 22395 16174)"><tspan class="TextParagraph" font-family="Liberation Sans, sans-serif" font-size="353px" font-weight="400"><tspan class="TextPosition" x="22395" y="16174"><tspan fill="rgb(0,0,0)" stroke="none">1500_10us_125Mbps</tspan></tspan></tspan></text>
 <text class="TextShape" transform="rotate(-44.9 23291 16101)"><tspan class="TextParagraph" font-family="Liberation Sans, sans-serif" font-size="353px" font-weight="400"><tspan class="TextPosition" x="23291" y="16101"><tspan fill="rgb(0,0,0)" stroke="none">2000_1us_16000bps</tspan></tspan></tspan></text>
 <text class="TextShape" transform="rotate(-44.9 24112 16101)"><tspan class="TextParagraph" font-family="Liberation Sans, sans-serif" font-size="353px" font-weight="400"><tspan class="TextPosition" x="24112" y="16101"><tspan fill="rgb(0,0,0)" stroke="none">2000_1us_64000bps</tspan></tspan></tspan></text>
 <text class="TextShape" transform="rotate(-44.9 24992 16043)"><tspan class="TextParagraph" font-family="Liberation Sans, sans-serif" font-size="353px" font-weight="400"><tspan class="TextPosition" x="24992" y="16043"><tspan fill="rgb(0,0,0)" stroke="none">2000_1us_125Mbps</tspan></tspan></tspan></text>
 <text class="TextShape" transform="rotate(-44.9 25758 16101)"><tspan class="TextParagraph" font-family="Liberation Sans, sans-serif" font-size="353px" font-weight="400"><tspan class="TextPosition" x="25758" y="16101"><tspan fill="rgb(0,0,0)" stroke="none">2000_5us_16000bps</tspan></tspan></tspan></text>
 <text class="TextShape" transform="rotate(-44.9 26580 16101)"><tspan class="TextParagraph" font-family="Liberation Sans, sans-serif" font-size="353px" font-weight="400"><tspan class="TextPosition" x="26580" y="16101"><tspan fill="rgb(0,0,0)" stroke="none">2000_5us_64000bps</tspan></tspan></tspan></text>
 <text class="TextShape" transform="rotate(-44.9 27460 16043)"><tspan class="TextParagraph" font-family="Liberation Sans, sans-serif" font-size="353px" font-weight="400"><tspan class="TextPosition" x="27460" y="16043"><tspan fill="rgb(0,0,0)" stroke="none">2000_5us_125Mbps</tspan></tspan></tspan></text>
 <text class="TextShape" transform="rotate(-44.9 28094 16231)"><tspan class="TextParagraph" font-family="Liberation Sans, sans-serif" font-size="353px" font-weight="400"><tspan class="TextPosition" x="28094" y="16231"><tspan fill="rgb(0,0,0)" stroke="none">2000_10us_16000bps</tspan></tspan></tspan></text>
 <text class="TextShape" transform="rotate(-44.9 28917 16231)"><tspan class="TextParagraph" font-family="Liberation Sans, sans-serif" font-size="353px" font-weight="400"><tspan class="TextPosition" x="28917" y="16231"><tspan fill="rgb(0,0,0)" stroke="none">2000_10us_64000bps</tspan></tspan></tspan></text>
 <text class="TextShape" transform="rotate(-44.9 29798 16174)"><tspan class="TextParagraph" font-family="Liberation Sans, sans-serif" font-size="353px" font-weight="400"><tspan class="TextPosition" x="29798" y="16174"><tspan fill="rgb(0,0,0)" stroke="none">2000_10us_125Mbps</tspan></tspan></tspan></text>
 <text class="TextShape"><tspan class="TextParagraph" font-family="Liberation Sans, sans-serif" font-size="353px" font-weight="400"><tspan class="TextPosition" x="2791" y="13519"><tspan fill="rgb(0,0,0)" stroke="none">0</tspan></tspan></tspan></text>
 <text class="TextShape"><tspan class="TextParagraph" font-family="Liberation Sans, sans-serif" font-size="353px" font-weight="400"><tspan class="TextPosition" x="1865" y="11556"><tspan fill="rgb(0,0,0)" stroke="none">200000</tspan></tspan></tspan></text>
 <text class="TextShape"><tspan class="TextParagraph" font-family="Liberation Sans, sans-serif" font-size="353px" font-weight="400"><tspan class="TextPosition" x="1865" y="9594"><tspan fill="rgb(0,0,0)" stroke="none">400000</tspan></tspan></tspan></text>
 <text class="TextShape"><tspan class="TextParagraph" font-family="Liberation Sans, sans-serif" font-size="353px" font-weight="400"><tspan class="TextPosition" x="1865" y="7632"><tspan fill="rgb(0,0,0)" stroke="none">600000</tspan></tspan></tspan></text>
 <text class="TextShape"><tspan class="TextParagraph" font-family="Liberation Sans, sans-serif" font-size="353px" font-weight="400"><tspan class="TextPosition" x="1865" y="5670"><tspan fill="rgb(0,0,0)" stroke="none">800000</tspan></tspan></tspan></text>
 <text class="TextShape"><tspan class="TextParagraph" font-family="Liberation Sans, sans-serif" font-size="353px" font-weight="400"><tspan class="TextPosition" x="1680" y="3708"><tspan fill="rgb(0,0,0)" stroke="none">1000000</tspan></tspan></tspan></text>
 <text class="TextShape"><tspan class="TextParagraph" font-family="Liberation Sans, sans-serif" font-size="353px" font-weight="400"><tspan class="TextPosition" x="1680" y="1746"><tspan fill="rgb(0,0,0)" stroke="none">1200000</tspan></tspan></tspan></text>
 <text class="TextShape"><tspan class="TextParagraph" font-family="Liberation Sans, sans-serif" font-size="459px" font-weight="400"><tspan class="TextPosition" x="14873" y="1027"><tspan fill="rgb(0,0,0)" stroke="none">Tempo de execução</tspan></tspan></tspan></text>
 <text class="TextShape"><tspan class="TextParagraph" font-family="Liberation Sans, sans-serif" font-size="318px" font-weight="400"><tspan class="TextPosition" x="13943" y="17229"><tspan fill="rgb(0,0,0)" stroke="none">Configuração: Tam. Vetor, Latência, Larg. Banda</tspan></tspan></tspan></text>
 <text class="TextShape" transform="rotate(-90 984 10816)"><tspan class="TextParagraph" font-family="Liberation Sans, sans-serif" font-size="423px" font-weight="400"><tspan class="TextPosition" x="984" y="10816"><tspan fill="rgb(0,0,0)" stroke="none">Tempo médio (ms)</tspan></tspan></tspan></text>
</svg>