<?xml version="1.0" encoding="UTF-8"?>
<!DOCTYPE svg PUBLIC "-//W3C//DTD SVG 1.1//EN" "http://www.w3.org/Graphics/SVG/1.1/DTD/svg11.dtd">
<svg width="325mm" height="183mm" viewBox="0 0 32500 18300" version="1.1" xmlns="http://www.w3.org/2000/svg" xmlns:xlink="http://www.w3.org/1999/xlink" stroke-width="28.222" stroke-linejoin="round" xml:space="preserve">
 <path fill="rgb(255,255,255)" stroke="none" d="M 16240,18269 L 0,18269 0,0 32479,0 32479,18269 16240,18269 Z"/>
 <path fill="none" stroke="rgb(179,179,179)" stroke-linejoin="round" d="M 15568,16132 L 2531,16132 2531,1845 28605,1845 28605,16132 15568,16132 Z"/>
 <path fill="none" stroke="rgb(179,179,179)" stroke-linejoin="round" d="M 28605,16131 L 2531,16131"/>
 <path fill="none" stroke="rgb(179,179,179)" stroke-linejoin="round" d="M 28605,14543 L 2531,14543"/>
 <path fill="none" stroke="rgb(179,179,179)" stroke-linejoin="round" d="M 28605,12955 L 2531,12955"/>
 <path fill="none" stroke="rgb(179,179,179)" stroke-linejoin="round" d="M 28605,11368 L 2531,11368"/>
 <path fill="none" stroke="rgb(179,179,179)" stroke-linejoin="round" d="M 28605,9780 L 2531,9780"/>
 <path fill="none" stroke="rgb(179,179,179)" stroke-linejoin="round" d="M 28605,8194 L 2531,8194"/>
 <path fill="none" stroke="rgb(179,179,179)" stroke-linejoin="round" d="M 28605,6606 L 2531,6606"/>
 <path fill="none" stroke="rgb(179,179,179)" stroke-linejoin="round" d="M 28605,5019 L 2531,5019"/>
 <path fill="none" stroke="rgb(179,179,179)" stroke-linejoin="round" d="M 28605,3431 L 2531,3431"/>
 <path fill="none" stroke="rgb(179,179,179)" stroke-linejoin="round" d="M 28605,1843 L 2531,1843"/>
 <path fill="none" stroke="rgb(179,179,179)" stroke-linejoin="round" d="M 2531,16281 L 2531,16131"/>
 <path fill="none" stroke="rgb(179,179,179)" stroke-linejoin="round" d="M 2531,16281 L 2531,16131"/>
 <path fill="none" stroke="rgb(179,179,179)" stroke-linejoin="round" d="M 7746,16281 L 7746,16131"/>
 <path fill="none" stroke="rgb(179,179,179)" stroke-linejoin="round" d="M 7746,16281 L 7746,16131"/>
 <path fill="none" stroke="rgb(179,179,179)" stroke-linejoin="round" d="M 12961,16281 L 12961,16131"/>
 <path fill="none" stroke="rgb(179,179,179)" stroke-linejoin="round" d="M 12961,16281 L 12961,16131"/>
 <path fill="none" stroke="rgb(179,179,179)" stroke-linejoin="round" d="M 18175,16281 L 18175,16131"/>
 <path fill="none" stroke="rgb(179,179,179)" stroke-linejoin="round" d="M 18175,16281 L 18175,16131"/>
 <path fill="none" stroke="rgb(179,179,179)" stroke-linejoin="round" d="M 23390,16281 L 23390,16131"/>
 <path fill="none" stroke="rgb(179,179,179)" stroke-linejoin="round" d="M 23390,16281 L 23390,16131"/>
 <path fill="none" stroke="rgb(179,179,179)" stroke-linejoin="round" d="M 28605,16281 L 28605,16131"/>
 <path fill="none" stroke="rgb(179,179,179)" stroke-linejoin="round" d="M 28605,16281 L 28605,16131"/>
 <path fill="none" stroke="rgb(179,179,179)" stroke-linejoin="round" d="M 2531,16131 L 28605,16131"/>
 <path fill="none" stroke="rgb(179,179,179)" stroke-linejoin="round" d="M 2381,16131 L 2531,16131"/>
 <path fill="none" stroke="rgb(179,179,179)" stroke-linejoin="round" d="M 2381,16131 L 2531,16131"/>
 <path fill="none" stroke="rgb(179,179,179)" stroke-linejoin="round" d="M 2381,14543 L 2531,14543"/>
 <path fill="none" stroke="rgb(179,179,179)" stroke-linejoin="round" d="M 2381,14543 L 2531,14543"/>
 <path fill="none" stroke="rgb(179,179,179)" stroke-linejoin="round" d="M 2381,12955 L 2531,12955"/>
 <path fill="none" stroke="rgb(179,179,179)" stroke-linejoin="round" d="M 2381,12955 L 2531,12955"/>
 <path fill="none" stroke="rgb(179,179,179)" stroke-linejoin="round" d="M 2381,11368 L 2531,11368"/>
 <path fill="none" stroke="rgb(179,179,179)" stroke-linejoin="round" d="M 2381,11368 L 2531,11368"/>
 <path fill="none" stroke="rgb(179,179,179)" stroke-linejoin="round" d="M 2381,9780 L 2531,9780"/>
 <path fill="none" stroke="rgb(179,179,179)" stroke-linejoin="round" d="M 2381,9780 L 2531,9780"/>
 <path fill="none" stroke="rgb(179,179,179)" stroke-linejoin="round" d="M 2381,8194 L 2531,8194"/>
 <path fill="none" stroke="rgb(179,179,179)" stroke-linejoin="round" d="M 2381,8194 L 2531,8194"/>
 <path fill="none" stroke="rgb(179,179,179)" stroke-linejoin="round" d="M 2381,6606 L 2531,6606"/>
 <path fill="none" stroke="rgb(179,179,179)" stroke-linejoin="round" d="M 2381,6606 L 2531,6606"/>
 <path fill="none" stroke="rgb(179,179,179)" stroke-linejoin="round" d="M 2381,5019 L 2531,5019"/>
 <path fill="none" stroke="rgb(179,179,179)" stroke-linejoin="round" d="M 2381,5019 L 2531,5019"/>
 <path fill="none" stroke="rgb(179,179,179)" stroke-linejoin="round" d="M 2381,3431 L 2531,3431"/>
 <path fill="none" stroke="rgb(179,179,179)" stroke-linejoin="round" d="M 2381,3431 L 2531,3431"/>
 <path fill="none" stroke="rgb(179,179,179)" stroke-linejoin="round" d="M 2381,1843 L 2531,1843"/>
 <path fill="none" stroke="rgb(179,179,179)" stroke-linejoin="round" d="M 2381,1843 L 2531,1843"/>
 <path fill="none" stroke="rgb(179,179,179)" stroke-linejoin="round" d="M 2531,16131 L 2531,1843"/>
 <path fill="rgb(0,69,134)" stroke="none" d="M 24259,16131 L 25997,16131 25997,3889 24259,3889 24259,16131 Z"/>
 <path fill="rgb(0,69,134)" stroke="none" d="M 19044,16131 L 20782,16131 20782,8931 19044,8931 19044,16131 Z"/>
 <path fill="rgb(0,69,134)" stroke="none" d="M 13830,16131 L 15568,16131 15568,9877 13830,9877 13830,16131 Z"/>
 <path fill="rgb(0,69,134)" stroke="none" d="M 8615,16131 L 10353,16131 10353,8066 8615,8066 8615,16131 Z"/>
 <path fill="rgb(0,69,134)" stroke="none" d="M 3400,16131 L 5138,16131 5138,9436 3400,9436 3400,16131 Z"/>
 <path fill="rgb(255,66,14)" stroke="none" d="M 25997,16131 L 27735,16131 27735,7283 25997,7283 25997,16131 Z"/>
 <path fill="rgb(255,66,14)" stroke="none" d="M 20782,16131 L 22520,16131 22520,9275 20782,9275 20782,16131 Z"/>
 <path fill="rgb(255,66,14)" stroke="none" d="M 15568,16131 L 17305,16131 17305,10673 15568,10673 15568,16131 Z"/>
 <path fill="rgb(255,66,14)" stroke="none" d="M 10353,16131 L 12091,16131 12091,11269 10353,11269 10353,16131 Z"/>
 <path fill="rgb(255,66,14)" stroke="none" d="M 5138,16131 L 6876,16131 6876,12306 5138,12306 5138,16131 Z"/>
 <text class="TextShape"><tspan class="TextParagraph" font-family="Liberation Sans, sans-serif" font-size="353px" font-weight="400"><tspan class="TextPosition" x="4953" y="16699"><tspan fill="rgb(0,0,0)" stroke="none">16</tspan></tspan></tspan></text>
 <text class="TextShape"><tspan class="TextParagraph" font-family="Liberation Sans, sans-serif" font-size="353px" font-weight="400"><tspan class="TextPosition" x="10168" y="16699"><tspan fill="rgb(0,0,0)" stroke="none">32</tspan></tspan></tspan></text>
 <text class="TextShape"><tspan class="TextParagraph" font-family="Liberation Sans, sans-serif" font-size="353px" font-weight="400"><tspan class="TextPosition" x="15383" y="16699"><tspan fill="rgb(0,0,0)" stroke="none">64</tspan></tspan></tspan></text>
 <text class="TextShape"><tspan class="TextParagraph" font-family="Liberation Sans, sans-serif" font-size="353px" font-weight="400"><tspan class="TextPosition" x="20505" y="16699"><tspan fill="rgb(0,0,0)" stroke="none">128</tspan></tspan></tspan></text>
 <text class="TextShape"><tspan class="TextParagraph" font-family="Liberation Sans, sans-serif" font-size="353px" font-weight="400"><tspan class="TextPosition" x="25720" y="16699"><tspan fill="rgb(0,0,0)" stroke="none">256</tspan></tspan></tspan></text>
 <text class="TextShape"><tspan class="TextParagraph" font-family="Liberation Sans, sans-serif" font-size="353px" font-weight="400"><tspan class="TextPosition" x="2096" y="16252"><tspan fill="rgb(0,0,0)" stroke="none">0</tspan></tspan></tspan></text>
 <text class="TextShape"><tspan class="TextParagraph" font-family="Liberation Sans, sans-serif" font-size="353px" font-weight="400"><tspan class="TextPosition" x="1805" y="14664"><tspan fill="rgb(0,0,0)" stroke="none">0,1</tspan></tspan></tspan></text>
 <text class="TextShape"><tspan class="TextParagraph" font-family="Liberation Sans, sans-serif" font-size="353px" font-weight="400"><tspan class="TextPosition" x="1805" y="13076"><tspan fill="rgb(0,0,0)" stroke="none">0,2</tspan></tspan></tspan></text>
 <text class="TextShape"><tspan class="TextParagraph" font-family="Liberation Sans, sans-serif" font-size="353px" font-weight="400"><tspan class="TextPosition" x="1805" y="11489"><tspan fill="rgb(0,0,0)" stroke="none">0,3</tspan></tspan></tspan></text>
 <text class="TextShape"><tspan class="TextParagraph" font-family="Liberation Sans, sans-serif" font-size="353px" font-weight="400"><tspan class="TextPosition" x="1805" y="9901"><tspan fill="rgb(0,0,0)" stroke="none">0,4</tspan></tspan></tspan></text>
 <text class="TextShape"><tspan class="TextParagraph" font-family="Liberation Sans, sans-serif" font-size="353px" font-weight="400"><tspan class="TextPosition" x="1805" y="8314"><tspan fill="rgb(0,0,0)" stroke="none">0,5</tspan></tspan></tspan></text>
 <text class="TextShape"><tspan class="TextParagraph" font-family="Liberation Sans, sans-serif" font-size="353px" font-weight="400"><tspan class="TextPosition" x="1805" y="6726"><tspan fill="rgb(0,0,0)" stroke="none">0,6</tspan></tspan></tspan></text>
 <text class="TextShape"><tspan class="TextParagraph" font-family="Liberation Sans, sans-serif" font-size="353px" font-weight="400"><tspan class="TextPosition" x="1805" y="5139"><tspan fill="rgb(0,0,0)" stroke="none">0,7</tspan></tspan></tspan></text>
 <text class="TextShape"><tspan class="TextParagraph" font-family="Liberation Sans, sans-serif" font-size="353px" font-weight="400"><tspan class="TextPosition" x="1805" y="3551"><tspan fill="rgb(0,0,0)" stroke="none">0,8</tspan></tspan></tspan></text>
 <text class="TextShape"><tspan class="TextParagraph" font-family="Liberation Sans, sans-serif" font-size="353px" font-weight="400"><tspan class="TextPosition" x="1805" y="1963"><tspan fill="rgb(0,0,0)" stroke="none">0,9</tspan></tspan></tspan></text>
 <text class="TextShape"><tspan class="TextParagraph" font-family="Liberation Sans, sans-serif" font-size="459px" font-weight="400"><tspan class="TextPosition" x="14242" y="1036"><tspan fill="rgb(0,0,0)" stroke="none">Tempo de execução</tspan></tspan></tspan></text>
 <path fill="rgb(0,69,134)" stroke="none" d="M 29520,8986 L 29393,8986 29393,8732 29647,8732 29647,8986 29520,8986 Z"/>
 <path fill="rgb(255,66,14)" stroke="none" d="M 29520,9536 L 29393,9536 29393,9282 29647,9282 29647,9536 29520,9536 Z"/>
 <text class="TextShape"><tspan class="TextParagraph" font-family="Liberation Sans, sans-serif" font-size="423px" font-weight="400"><tspan class="TextPosition" x="29747" y="9004"><tspan fill="rgb(0,0,0)" stroke="none">sr_bcast</tspan></tspan></tspan></text>
 <text class="TextShape"><tspan class="TextParagraph" font-family="Liberation Sans, sans-serif" font-size="423px" font-weight="400"><tspan class="TextPosition" x="29747" y="9554"><tspan fill="rgb(0,0,0)" stroke="none">bcast_nativo</tspan></tspan></tspan></text>
 <text class="TextShape"><tspan class="TextParagraph" font-family="Liberation Sans, sans-serif" font-size="423px" font-weight="400"><tspan class="TextPosition" x="14213" y="17642"><tspan fill="rgb(0,0,0)" stroke="none">Processos</tspan></tspan></tspan></text>
 <text class="TextShape" transform="rotate(-90 948 10971)"><tspan class="TextParagraph" font-family="Liberation Sans, sans-serif" font-size="423px" font-weight="400"><tspan class="TextPosition" x="948" y="10971"><tspan fill="rgb(0,0,0)" stroke="none">Tempo médio (ms)</tspan></tspan></tspan></text>
</svg>